<svg xmlns="http://www.w3.org/2000/svg" width="192" height="192" viewBox="0 0 192 192" role="img" aria-label="Buddybug icon">
  <defs>
    <linearGradient id="bg192" x1="0%" x2="100%" y1="0%" y2="100%">
      <stop offset="0%" stop-color="#e0e7ff" />
      <stop offset="100%" stop-color="#c7d2fe" />
    </linearGradient>
  </defs>
  <rect width="192" height="192" rx="44" fill="url(#bg192)" />
  <circle cx="118" cy="62" r="26" fill="#fef3c7" />
  <path d="M121 40a24 24 0 1 0 12 45 28 28 0 1 1-12-45Z" fill="#fcd34d" opacity="0.85" />
  <ellipse cx="96" cy="112" rx="46" ry="38" fill="#312e81" />
  <ellipse cx="96" cy="112" rx="22" ry="34" fill="#a5b4fc" />
  <circle cx="80" cy="104" r="5" fill="#fff" />
  <circle cx="112" cy="104" r="5" fill="#fff" />
  <path d="M74 86c-6-8-14-12-24-13" fill="none" stroke="#312e81" stroke-linecap="round" stroke-width="7" />
  <path d="M118 86c6-8 14-12 24-13" fill="none" stroke="#312e81" stroke-linecap="round" stroke-width="7" />
  <path d="M86 122c7 8 13 12 20 0" fill="none" stroke="#312e81" stroke-linecap="round" stroke-width="6" />
</svg>
